<svg width="100" height="100" viewBox="0 0 100 100" xmlns="http://www.w3.org/2000/svg" role="img" aria-label="QSC">
  <rect width="100" height="100" fill="none"/>
  <g fill="#0066cc">
    <path d="M15 25C15 20 19 15 25 15H40C46 15 50 19 50 25V30H42V25C42 23 41 22 40 22H25C24 22 23 23 23 25V35H50V42H15V25Z"/>
    <path d="M55 15H70C76 15 80 19 80 25V45C80 51 76 55 70 55H55C49 55 45 51 45 45V25C45 19 49 15 55 15ZM53 25V45C53 48 55 50 58 50H67C70 50 72 48 72 45V25C72 22 70 20 67 20H58C55 20 53 22 53 25Z"/>
    <path d="M15 50H50V57H15V50Z"/>
    <path d="M55 50H80V57H55V50Z"/>
  </g>
</svg>
